<svg width="1400" height="900" viewBox="0 0 1400 900" xmlns="http://www.w3.org/2000/svg">
  <defs>
    <!-- Gradients for realistic lighting -->
    <radialGradient id="tableGradient" cx="50%" cy="40%" r="60%">
      <stop offset="0%" stop-color="#4a5568"/>
      <stop offset="100%" stop-color="#2d3748"/>
    </radialGradient>
    
    <linearGradient id="roomGradient" x1="0%" y1="0%" x2="100%" y2="100%">
      <stop offset="0%" stop-color="#1a202c"/>
      <stop offset="50%" stop-color="#2d3748"/>
      <stop offset="100%" stop-color="#1a202c"/>
    </linearGradient>
    
    <radialGradient id="lightGradient" cx="50%" cy="20%" r="80%">
      <stop offset="0%" stop-color="#4299e1" stop-opacity="0.1"/>
      <stop offset="50%" stop-color="#3182ce" stop-opacity="0.05"/>
      <stop offset="100%" stop-color="#2b6cb0" stop-opacity="0.02"/>
    </radialGradient>
    
    <!-- Pattern for subtle texture -->
    <pattern id="subtlePattern" patternUnits="userSpaceOnUse" width="60" height="60">
      <rect width="60" height="60" fill="#1a202c"/>
      <circle cx="30" cy="30" r="1" fill="#4a5568" opacity="0.3"/>
    </pattern>
  </defs>
  
  <!-- Background -->
  <rect width="1400" height="900" fill="url(#roomGradient)"/>
  <rect width="1400" height="900" fill="url(#subtlePattern)" opacity="0.5"/>
  
  <!-- Room perspective -->
  <polygon points="0,900 200,200 1200,200 1400,900" fill="#2d3748" opacity="0.3"/>
  
  <!-- Conference table (elegant oval) -->
  <ellipse cx="700" cy="500" rx="400" ry="120" fill="url(#tableGradient)" opacity="0.8"/>
  <ellipse cx="700" cy="490" rx="390" ry="110" fill="#4a5568" opacity="0.4"/>
  
  <!-- Table reflection/shine -->
  <ellipse cx="700" cy="480" rx="300" ry="60" fill="#68d391" opacity="0.1"/>
  
  <!-- Executive chairs (high-back, professional) -->
  <g opacity="0.4">
    <!-- Top side chairs -->
    <g>
      <ellipse cx="500" cy="360" rx="25" ry="35" fill="#4a5568"/>
      <rect x="485" y="320" width="30" height="50" rx="15" fill="#4a5568"/>
      <rect x="490" y="315" width="20" height="60" rx="10" fill="#68d391" opacity="0.3"/>
    </g>
    
    <g>
      <ellipse cx="600" cy="350" rx="25" ry="35" fill="#4a5568"/>
      <rect x="585" y="310" width="30" height="50" rx="15" fill="#4a5568"/>
      <rect x="590" y="305" width="20" height="60" rx="10" fill="#68d391" opacity="0.3"/>
    </g>
    
    <g>
      <ellipse cx="800" cy="350" rx="25" ry="35" fill="#4a5568"/>
      <rect x="785" y="310" width="30" height="50" rx="15" fill="#4a5568"/>
      <rect x="790" y="305" width="20" height="60" rx="10" fill="#68d391" opacity="0.3"/>
    </g>
    
    <g>
      <ellipse cx="900" cy="360" rx="25" ry="35" fill="#4a5568"/>
      <rect x="885" y="320" width="30" height="50" rx="15" fill="#4a5568"/>
      <rect x="890" y="315" width="20" height="60" rx="10" fill="#68d391" opacity="0.3"/>
    </g>
    
    <!-- Bottom side chairs -->
    <g>
      <ellipse cx="500" cy="640" rx="25" ry="35" fill="#4a5568"/>
      <rect x="485" y="600" width="30" height="50" rx="15" fill="#4a5568"/>
      <rect x="490" y="595" width="20" height="60" rx="10" fill="#68d391" opacity="0.3"/>
    </g>
    
    <g>
      <ellipse cx="600" cy="650" rx="25" ry="35" fill="#4a5568"/>
      <rect x="585" y="610" width="30" height="50" rx="15" fill="#4a5568"/>
      <rect x="590" y="605" width="20" height="60" rx="10" fill="#68d391" opacity="0.3"/>
    </g>
    
    <g>
      <ellipse cx="800" cy="650" rx="25" ry="35" fill="#4a5568"/>
      <rect x="785" y="610" width="30" height="50" rx="15" fill="#4a5568"/>
      <rect x="790" y="605" width="20" height="60" rx="10" fill="#68d391" opacity="0.3"/>
    </g>
    
    <g>
      <ellipse cx="900" cy="640" rx="25" ry="35" fill="#4a5568"/>
      <rect x="885" y="600" width="30" height="50" rx="15" fill="#4a5568"/>
      <rect x="890" y="595" width="20" height="60" rx="10" fill="#68d391" opacity="0.3"/>
    </g>
    
    <!-- Side chairs -->
    <g>
      <ellipse cx="350" cy="500" rx="35" ry="25" fill="#4a5568"/>
      <rect x="310" y="485" width="50" height="30" rx="15" fill="#4a5568"/>
      <rect x="305" y="490" width="60" height="20" rx="10" fill="#68d391" opacity="0.3"/>
    </g>
    
    <g>
      <ellipse cx="1050" cy="500" rx="35" ry="25" fill="#4a5568"/>
      <rect x="1010" y="485" width="50" height="30" rx="15" fill="#4a5568"/>
      <rect x="1005" y="490" width="60" height="20" rx="10" fill="#68d391" opacity="0.3"/>
    </g>
  </g>
  
  <!-- Professional silhouettes -->
  <g opacity="0.3">
    <!-- Executive 1 - Top -->
    <circle cx="500" cy="340" r="18" fill="#a0aec0"/>
    <ellipse cx="500" cy="365" rx="22" ry="30" fill="#a0aec0"/>
    
    <!-- Executive 2 - Top -->
    <circle cx="600" cy="330" r="18" fill="#a0aec0"/>
    <ellipse cx="600" cy="355" rx="22" ry="30" fill="#a0aec0"/>
    
    <!-- Executive 3 - Top -->
    <circle cx="800" cy="330" r="18" fill="#a0aec0"/>
    <ellipse cx="800" cy="355" rx="22" ry="30" fill="#a0aec0"/>
    
    <!-- Executive 4 - Top -->
    <circle cx="900" cy="340" r="18" fill="#a0aec0"/>
    <ellipse cx="900" cy="365" rx="22" ry="30" fill="#a0aec0"/>
    
    <!-- Executive 5 - Bottom -->
    <circle cx="500" cy="660" r="18" fill="#a0aec0"/>
    <ellipse cx="500" cy="635" rx="22" ry="30" fill="#a0aec0"/>
    
    <!-- Executive 6 - Bottom -->
    <circle cx="600" cy="670" r="18" fill="#a0aec0"/>
    <ellipse cx="600" cy="645" rx="22" ry="30" fill="#a0aec0"/>
    
    <!-- Executive 7 - Bottom -->
    <circle cx="800" cy="670" r="18" fill="#a0aec0"/>
    <ellipse cx="800" cy="645" rx="22" ry="30" fill="#a0aec0"/>
    
    <!-- Executive 8 - Bottom -->
    <circle cx="900" cy="660" r="18" fill="#a0aec0"/>
    <ellipse cx="900" cy="635" rx="22" ry="30" fill="#a0aec0"/>
    
    <!-- Side executives -->
    <circle cx="350" cy="480" r="18" fill="#a0aec0"/>
    <ellipse cx="350" cy="505" rx="30" ry="22" fill="#a0aec0"/>
    
    <circle cx="1050" cy="480" r="18" fill="#a0aec0"/>
    <ellipse cx="1050" cy="505" rx="30" ry="22" fill="#a0aec0"/>
  </g>
  
  <!-- Documents and devices on table -->
  <g opacity="0.2">
    <!-- Laptops -->
    <rect x="580" y="480" width="40" height="25" rx="3" fill="#4a5568"/>
    <rect x="780" y="485" width="40" height="25" rx="3" fill="#4a5568"/>
    
    <!-- Documents -->
    <rect x="520" y="490" width="30" height="20" rx="2" fill="#e2e8f0"/>
    <rect x="850" y="495" width="30" height="20" rx="2" fill="#e2e8f0"/>
    
    <!-- Coffee cups -->
    <circle cx="480" cy="500" r="6" fill="#4a5568"/>
    <circle cx="920" cy="505" r="6" fill="#4a5568"/>
  </g>
  
  <!-- Presentation screen/display -->
  <rect x="300" y="80" width="800" height="120" rx="15" fill="#2d3748" opacity="0.4"/>
  <rect x="310" y="90" width="780" height="100" rx="10" fill="#1a202c" opacity="0.6"/>
  
  <!-- Screen content (subtle) -->
  <rect x="320" y="100" width="200" height="80" rx="5" fill="#4299e1" opacity="0.1"/>
  <rect x="540" y="110" width="300" height="10" rx="2" fill="#68d391" opacity="0.2"/>
  <rect x="540" y="130" width="250" height="10" rx="2" fill="#68d391" opacity="0.2"/>
  <rect x="540" y="150" width="280" height="10" rx="2" fill="#68d391" opacity="0.2"/>
  
  <!-- Ambient lighting effect -->
  <rect width="1400" height="900" fill="url(#lightGradient)"/>
  
  <!-- Ceiling lights effect -->
  <ellipse cx="400" cy="100" rx="100" ry="30" fill="#4299e1" opacity="0.05"/>
  <ellipse cx="700" cy="120" rx="150" ry="40" fill="#4299e1" opacity="0.08"/>
  <ellipse cx="1000" cy="100" rx="100" ry="30" fill="#4299e1" opacity="0.05"/>
  
  <!-- Subtle architectural details -->
  <rect x="0" y="0" width="1400" height="50" fill="#2d3748" opacity="0.3"/>
  <rect x="0" y="850" width="1400" height="50" fill="#2d3748" opacity="0.3"/>
  
  <!-- Floor pattern -->
  <pattern id="floorTile" patternUnits="userSpaceOnUse" width="100" height="100">
    <rect width="100" height="100" fill="#1a202c"/>
    <rect x="0" y="0" width="100" height="100" fill="none" stroke="#4a5568" stroke-width="0.5" opacity="0.2"/>
  </pattern>
  <polygon points="0,900 200,200 1200,200 1400,900" fill="url(#floorTile)" opacity="0.3"/>
</svg>