<svg width="1920" height="1080" viewBox="0 0 1920 1080" xmlns="http://www.w3.org/2000/svg">
  <defs>
    <!-- Professional lighting gradients -->
    <radialGradient id="ambientLight" cx="50%" cy="30%" r="80%">
      <stop offset="0%" stop-color="#1e40af" stop-opacity="0.15"/>
      <stop offset="50%" stop-color="#1e3a8a" stop-opacity="0.08"/>
      <stop offset="100%" stop-color="#1e293b" stop-opacity="0.02"/>
    </radialGradient>
    
    <radialGradient id="spotlight1" cx="30%" cy="20%" r="40%">
      <stop offset="0%" stop-color="#dbeafe" stop-opacity="0.2"/>
      <stop offset="100%" stop-color="#1e293b" stop-opacity="0"/>
    </radialGradient>
    
    <radialGradient id="spotlight2" cx="70%" cy="25%" r="45%">
      <stop offset="0%" stop-color="#e0e7ff" stop-opacity="0.18"/>
      <stop offset="100%" stop-color="#1e293b" stop-opacity="0"/>
    </radialGradient>
    
    <linearGradient id="roomDepth" x1="0%" y1="0%" x2="0%" y2="100%">
      <stop offset="0%" stop-color="#0f172a"/>
      <stop offset="50%" stop-color="#1e293b"/>
      <stop offset="100%" stop-color="#0f172a"/>
    </linearGradient>
    
    <!-- Wood grain pattern for table -->
    <pattern id="woodGrain" patternUnits="userSpaceOnUse" width="200" height="100">
      <rect width="200" height="100" fill="#1e293b"/>
      <path d="M0,20 Q50,15 100,22 T200,20" stroke="#334155" stroke-width="0.5" fill="none" opacity="0.4"/>
      <path d="M0,40 Q50,35 100,42 T200,40" stroke="#334155" stroke-width="0.5" fill="none" opacity="0.4"/>
      <path d="M0,60 Q50,55 100,62 T200,60" stroke="#334155" stroke-width="0.5" fill="none" opacity="0.4"/>
      <path d="M0,80 Q50,75 100,82 T200,80" stroke="#334155" stroke-width="0.5" fill="none" opacity="0.4"/>
    </pattern>
    
    <!-- Glass reflection -->
    <linearGradient id="glassReflection" x1="0%" y1="0%" x2="0%" y2="100%">
      <stop offset="0%" stop-color="#ffffff" stop-opacity="0.15"/>
      <stop offset="50%" stop-color="#ffffff" stop-opacity="0.05"/>
      <stop offset="100%" stop-color="#ffffff" stop-opacity="0"/>
    </linearGradient>
  </defs>
  
  <!-- Background room -->
  <rect width="1920" height="1080" fill="url(#roomDepth)"/>
  
  <!-- Back wall panels -->
  <rect x="0" y="0" width="1920" height="600" fill="#0f172a" opacity="0.6"/>
  <rect x="100" y="50" width="300" height="400" rx="5" fill="#1e293b" opacity="0.3"/>
  <rect x="450" y="50" width="300" height="400" rx="5" fill="#1e293b" opacity="0.3"/>
  <rect x="1170" y="50" width="300" height="400" rx="5" fill="#1e293b" opacity="0.3"/>
  <rect x="1520" y="50" width="300" height="400" rx="5" fill="#1e293b" opacity="0.3"/>
  
  <!-- Window light effect -->
  <rect x="800" y="80" width="320" height="350" rx="5" fill="url(#spotlight1)" opacity="0.3"/>
  
  <!-- Conference table (elegant design) -->
  <g transform="translate(960, 700)">
    <!-- Table shadow -->
    <ellipse cx="0" cy="20" rx="600" ry="180" fill="#000000" opacity="0.3" filter="blur(20px)"/>
    
    <!-- Table surface -->
    <ellipse cx="0" cy="0" rx="550" ry="160" fill="#1e293b"/>
    <ellipse cx="0" cy="0" rx="550" ry="160" fill="url(#woodGrain)" opacity="0.4"/>
    <ellipse cx="0" cy="-5" rx="540" ry="150" fill="#334155" opacity="0.6"/>
    
    <!-- Table reflection -->
    <ellipse cx="0" cy="-10" rx="400" ry="80" fill="url(#glassReflection)" opacity="0.6"/>
    
    <!-- Center decoration -->
    <circle cx="0" cy="0" r="60" fill="#1e293b" opacity="0.4"/>
    <circle cx="0" cy="0" r="50" fill="#475569" opacity="0.2"/>
  </g>
  
  <!-- Executive chairs (high-back leather style) -->
  <g opacity="0.6">
    <!-- Top row chairs -->
    <g transform="translate(500, 500)">
      <rect x="-30" y="-60" width="60" height="80" rx="20" fill="#334155"/>
      <rect x="-25" y="-55" width="50" height="70" rx="15" fill="#475569" opacity="0.6"/>
      <circle cx="0" cy="-30" r="25" fill="#475569"/>
    </g>
    
    <g transform="translate(700, 480)">
      <rect x="-30" y="-60" width="60" height="80" rx="20" fill="#334155"/>
      <rect x="-25" y="-55" width="50" height="70" rx="15" fill="#475569" opacity="0.6"/>
      <circle cx="0" cy="-30" r="25" fill="#475569"/>
    </g>
    
    <g transform="translate(960, 470)">
      <rect x="-35" y="-70" width="70" height="90" rx="20" fill="#334155"/>
      <rect x="-30" y="-65" width="60" height="80" rx="15" fill="#475569" opacity="0.6"/>
      <circle cx="0" cy="-35" r="30" fill="#475569"/>
    </g>
    
    <g transform="translate(1220, 480)">
      <rect x="-30" y="-60" width="60" height="80" rx="20" fill="#334155"/>
      <rect x="-25" y="-55" width="50" height="70" rx="15" fill="#475569" opacity="0.6"/>
      <circle cx="0" cy="-30" r="25" fill="#475569"/>
    </g>
    
    <g transform="translate(1420, 500)">
      <rect x="-30" y="-60" width="60" height="80" rx="20" fill="#334155"/>
      <rect x="-25" y="-55" width="50" height="70" rx="15" fill="#475569" opacity="0.6"/>
      <circle cx="0" cy="-30" r="25" fill="#475569"/>
    </g>
    
    <!-- Bottom row chairs -->
    <g transform="translate(500, 900)">
      <rect x="-30" y="-60" width="60" height="80" rx="20" fill="#334155"/>
      <rect x="-25" y="-55" width="50" height="70" rx="15" fill="#475569" opacity="0.6"/>
      <circle cx="0" cy="-30" r="25" fill="#475569"/>
    </g>
    
    <g transform="translate(700, 920)">
      <rect x="-30" y="-60" width="60" height="80" rx="20" fill="#334155"/>
      <rect x="-25" y="-55" width="50" height="70" rx="15" fill="#475569" opacity="0.6"/>
      <circle cx="0" cy="-30" r="25" fill="#475569"/>
    </g>
    
    <g transform="translate(960, 930)">
      <rect x="-35" y="-70" width="70" height="90" rx="20" fill="#334155"/>
      <rect x="-30" y="-65" width="60" height="80" rx="15" fill="#475569" opacity="0.6"/>
      <circle cx="0" cy="-35" r="30" fill="#475569"/>
    </g>
    
    <g transform="translate(1220, 920)">
      <rect x="-30" y="-60" width="60" height="80" rx="20" fill="#334155"/>
      <rect x="-25" y="-55" width="50" height="70" rx="15" fill="#475569" opacity="0.6"/>
      <circle cx="0" cy="-30" r="25" fill="#475569"/>
    </g>
    
    <g transform="translate(1420, 900)">
      <rect x="-30" y="-60" width="60" height="80" rx="20" fill="#334155"/>
      <rect x="-25" y="-55" width="50" height="70" rx="15" fill="#475569" opacity="0.6"/>
      <circle cx="0" cy="-30" r="25" fill="#475569"/>
    </g>
  </g>
  
  <!-- Executive silhouettes -->
  <g opacity="0.4">
    <!-- Top executives -->
    <g transform="translate(500, 480)">
      <circle cx="0" cy="0" r="25" fill="#64748b"/>
      <ellipse cx="0" cy="30" rx="35" ry="40" fill="#64748b"/>
    </g>
    
    <g transform="translate(700, 460)">
      <circle cx="0" cy="0" r="25" fill="#64748b"/>
      <ellipse cx="0" cy="30" rx="35" ry="40" fill="#64748b"/>
    </g>
    
    <g transform="translate(960, 450)">
      <circle cx="0" cy="0" r="30" fill="#64748b"/>
      <ellipse cx="0" cy="35" rx="40" ry="45" fill="#64748b"/>
    </g>
    
    <g transform="translate(1220, 460)">
      <circle cx="0" cy="0" r="25" fill="#64748b"/>
      <ellipse cx="0" cy="30" rx="35" ry="40" fill="#64748b"/>
    </g>
    
    <g transform="translate(1420, 480)">
      <circle cx="0" cy="0" r="25" fill="#64748b"/>
      <ellipse cx="0" cy="30" rx="35" ry="40" fill="#64748b"/>
    </g>
  </g>
  
  <!-- Conference room items on table -->
  <g opacity="0.3">
    <!-- Laptops -->
    <rect x="650" y="680" width="60" height="40" rx="3" fill="#475569" transform="rotate(-5 680 700)"/>
    <rect x="1200" y="685" width="60" height="40" rx="3" fill="#475569" transform="rotate(8 1230 705)"/>
    
    <!-- Documents -->
    <rect x="520" y="690" width="40" height="30" rx="2" fill="#e2e8f0" opacity="0.3"/>
    <rect x="1350" y="695" width="40" height="30" rx="2" fill="#e2e8f0" opacity="0.3"/>
    
    <!-- Water glasses -->
    <circle cx="480" cy="700" r="8" fill="#60a5fa" opacity="0.2"/>
    <circle cx="1440" cy="705" r="8" fill="#60a5fa" opacity="0.2"/>
  </g>
  
  <!-- Large presentation screen -->
  <g transform="translate(960, 200)">
    <rect x="-400" y="-100" width="800" height="450" rx="10" fill="#0f172a" opacity="0.8"/>
    <rect x="-390" y="-90" width="780" height="430" rx="8" fill="#1e293b"/>
    
    <!-- Screen content (charts and graphs) -->
    <rect x="-350" y="-50" width="200" height="150" rx="5" fill="#3b82f6" opacity="0.2"/>
    <rect x="-350" y="120" width="200" height="150" rx="5" fill="#10b981" opacity="0.2"/>
    
    <!-- Bar chart -->
    <rect x="-120" y="-50" width="40" height="100" fill="#60a5fa" opacity="0.4"/>
    <rect x="-60" y="-50" width="40" height="150" fill="#3b82f6" opacity="0.4"/>
    <rect x="0" y="-50" width="40" height="120" fill="#60a5fa" opacity="0.4"/>
    <rect x="60" y="-50" width="40" height="180" fill="#3b82f6" opacity="0.4"/>
    
    <!-- Text lines -->
    <rect x="150" y="-50" width="200" height="10" rx="2" fill="#64748b" opacity="0.3"/>
    <rect x="150" y="-20" width="150" height="10" rx="2" fill="#64748b" opacity="0.3"/>
    <rect x="150" y="10" width="180" height="10" rx="2" fill="#64748b" opacity="0.3"/>
    
    <!-- Pie chart -->
    <circle cx="250" cy="200" r="80" fill="#8b5cf6" opacity="0.2"/>
    <path d="M 250,200 L 250,120 A 80,80 0 0,1 330,200 Z" fill="#a78bfa" opacity="0.3"/>
  </g>
  
  <!-- Ambient lighting -->
  <rect width="1920" height="1080" fill="url(#ambientLight)"/>
  <rect width="1920" height="1080" fill="url(#spotlight1)" opacity="0.5"/>
  <rect width="1920" height="1080" fill="url(#spotlight2)" opacity="0.4"/>
  
  <!-- Ceiling lights -->
  <ellipse cx="480" cy="100" rx="150" ry="40" fill="#dbeafe" opacity="0.1"/>
  <ellipse cx="960" cy="120" rx="200" ry="50" fill="#e0e7ff" opacity="0.12"/>
  <ellipse cx="1440" cy="100" rx="150" ry="40" fill="#dbeafe" opacity="0.1"/>
  
  <!-- Subtle vignette -->
  <rect width="1920" height="1080" fill="none" stroke="url(#roomDepth)" stroke-width="200" opacity="0.4"/>
</svg>